<mxfile host="" modified="2020-05-30T12:10:47.025Z" agent="5.0 (Macintosh; Intel Mac OS X 10_15_4) AppleWebKit/537.36 (KHTML, like Gecko) Code/1.45.1 Chrome/78.0.3904.130 Electron/7.2.4 Safari/537.36" etag="MEhxgXRtBFTPRBkjNWfA" version="13.1.3" pages="2">
    <diagram id="6hGFLwfOUW9BJ-s0fimq" name="Page-1">
        <mxGraphModel dx="786" dy="456" grid="1" gridSize="10" guides="1" tooltips="1" connect="1" arrows="1" fold="1" page="1" pageScale="1" pageWidth="827" pageHeight="1169" math="0" shadow="0">
            <root>
                <mxCell id="0"/>
                <mxCell id="1" parent="0"/>
                <UserObject label="Some text" link="https://github.com/rlespinasse/qanda" id="2">
                    <mxCell style="rounded=1;whiteSpace=wrap;html=1;" parent="1" vertex="1">
                        <mxGeometry x="10" y="10" width="120" height="60" as="geometry"/>
                    </mxCell>
                </UserObject>
                <UserObject label="Some link" link="https://github.com/rlespinasse/qanda" id="3">
                    <mxCell style="text;html=1;strokeColor=none;fillColor=none;align=center;verticalAlign=middle;whiteSpace=wrap;rounded=0;" parent="1" vertex="1">
                        <mxGeometry x="30" y="90" width="80" height="20" as="geometry"/>
                    </mxCell>
                </UserObject>
            </root>
        </mxGraphModel>
    </diagram>
    <diagram id="uxmCjvtDnyQ5a-Pwx-H2" name="Page-2">
        <mxGraphModel dx="786" dy="456" grid="1" gridSize="10" guides="1" tooltips="1" connect="1" arrows="1" fold="1" page="1" pageScale="1" pageWidth="827" pageHeight="1169" math="0" shadow="0">
            <root>
                <mxCell id="TNtEY0RBNgo78GKOQMbf-0"/>
                <mxCell id="TNtEY0RBNgo78GKOQMbf-1" parent="TNtEY0RBNgo78GKOQMbf-0"/>
                <UserObject label="Some text" link="https://github.com/rlespinasse/qanda" id="TNtEY0RBNgo78GKOQMbf-2">
                    <mxCell style="rounded=1;whiteSpace=wrap;html=1;" vertex="1" parent="TNtEY0RBNgo78GKOQMbf-1">
                        <mxGeometry x="10" y="10" width="120" height="60" as="geometry"/>
                    </mxCell>
                </UserObject>
                <UserObject label="Some link" link="https://github.com/rlespinasse/qanda" id="TNtEY0RBNgo78GKOQMbf-3">
                    <mxCell style="text;html=1;strokeColor=none;fillColor=none;align=center;verticalAlign=middle;whiteSpace=wrap;rounded=0;" vertex="1" parent="TNtEY0RBNgo78GKOQMbf-1">
                        <mxGeometry x="30" y="90" width="80" height="20" as="geometry"/>
                    </mxCell>
                </UserObject>
            </root>
        </mxGraphModel>
    </diagram>
</mxfile>
